<svg width="451" height="356" viewBox="0 0 451 356" fill="none" xmlns="http://www.w3.org/2000/svg">
<path d="M165.826 318.303C153.73 313.304 147.701 298.737 152.39 285.83C157.075 272.924 170.726 266.49 182.824 271.489C194.919 276.492 200.942 291.06 196.257 303.969C191.573 316.875 177.921 323.302 165.826 318.303ZM198.227 271.412C195.419 268.155 194.529 263.511 196.031 259.38L216.519 202.954L221.475 199.279L207.876 190.167L207.139 186.87L182.769 253.992C181.392 257.793 177.948 260.212 174.138 260.236C161.185 260.316 148.997 268.704 144.031 282.37C139.106 295.944 142.728 310.794 152.098 320.179C150.986 329.926 145.087 352.489 114.399 355.156C114.399 355.156 139.627 363.24 177.743 329.366C189.448 328.035 200.07 319.942 204.612 307.422C209.238 294.687 206.336 280.831 198.227 271.412Z" fill="#C0C0C0"/>
<mask id="mask0_0_1" style="mask-type:luminance" maskUnits="userSpaceOnUse" x="164" y="0" width="180" height="356">
<path d="M290.71 320.057C278.842 325.646 264.93 319.89 259.692 307.23C254.45 294.565 259.845 279.715 271.707 274.126C283.575 268.537 297.494 274.289 302.729 286.951C307.967 299.611 302.579 314.462 290.71 320.057ZM222.011 183.884C217.392 181.982 215.104 176.438 216.894 171.516C218.677 166.591 223.87 164.144 228.485 166.054C233.098 167.963 235.392 173.5 233.602 178.422C231.814 183.353 226.626 185.794 222.011 183.884ZM304.504 321.255C313.454 311.42 316.436 296.405 310.928 283.087C305.381 269.683 292.841 261.902 279.899 262.451C276.089 262.618 272.548 260.374 271.008 256.648L164.822 0L206.851 188.391L235.089 207.316L257.989 262.677C259.671 266.727 258.983 271.412 256.32 274.809C248.622 284.61 246.322 298.599 251.49 311.09C256.575 323.377 267.532 330.934 279.28 331.691C318.817 363.649 343.67 354.336 343.67 354.336C312.902 353.183 306.038 330.934 304.504 321.255Z" fill="white"/>
</mask>
<g mask="url(#mask0_0_1)">
<path d="M164.822 0V363.649H343.67V0H164.822Z" fill="url(#paint0_linear_0_1)"/>
</g>
<path d="M402.687 240.056C420.589 254.44 451 249.174 451 249.174C424.59 248.237 420.801 239.299 399.769 203.463C378.738 167.634 346.413 134.749 311.915 152.483C277.421 170.208 262.956 154.838 262.956 154.838C262.956 154.838 277.199 186.391 275.957 205.164C274.723 223.944 285.452 226.2 285.452 226.2C284.166 213.126 294.912 214.34 294.912 214.34C296.963 243.088 315.483 248.081 315.483 248.081C311.167 241.746 316.151 235.561 316.151 235.561C330.404 266.067 348.582 260.612 348.582 260.612C344.257 254.797 348.23 250.684 348.23 250.684C365.878 283.331 389.001 274.3 389.001 274.3C376.934 262.626 383.465 250.198 383.465 250.198C408.878 287.666 438.46 271.426 438.46 271.426C411.057 271.518 402.687 240.056 402.687 240.056Z" fill="white"/>
<path d="M139.079 152.483C104.585 134.749 72.262 167.634 51.2293 203.463C30.1988 239.299 26.4099 248.237 0 249.174C0 249.174 30.4106 254.44 48.313 240.056C48.313 240.056 39.9411 271.518 12.54 271.426C12.54 271.426 42.1225 287.666 67.5328 250.198C67.5328 250.198 74.0664 262.626 61.9988 274.3C61.9988 274.3 85.1154 283.331 102.77 250.684C102.77 250.684 106.739 254.797 102.416 260.612C102.416 260.612 120.596 266.067 134.85 235.561C134.85 235.561 139.827 241.746 135.512 248.081C135.512 248.081 154.037 243.088 156.088 214.34C156.088 214.34 166.834 213.126 165.548 226.2C165.548 226.2 176.277 223.944 175.043 205.164C173.799 186.391 188.042 154.838 188.042 154.838C188.042 154.838 173.577 170.208 139.079 152.483Z" fill="white"/>
<path d="M246.983 186.662L279.774 2.31421L228.799 142.711L246.983 186.662Z" fill="#C0C0C0"/>
<defs>
<linearGradient id="paint0_linear_0_1" x1="164.822" y1="177.798" x2="343.67" y2="177.798" gradientUnits="userSpaceOnUse">
<stop stop-color="#7FCB2D"/>
<stop offset="0.015625" stop-color="#7FCA2D"/>
<stop offset="0.03125" stop-color="#7EC92D"/>
<stop offset="0.046875" stop-color="#7DC92D"/>
<stop offset="0.0546875" stop-color="#7CC82C"/>
<stop offset="0.0625" stop-color="#7BC82C"/>
<stop offset="0.0703125" stop-color="#7AC72C"/>
<stop offset="0.078125" stop-color="#7AC72C"/>
<stop offset="0.0859375" stop-color="#79C62C"/>
<stop offset="0.09375" stop-color="#79C52C"/>
<stop offset="0.101562" stop-color="#79C52C"/>
<stop offset="0.109375" stop-color="#79C42C"/>
<stop offset="0.125" stop-color="#78C42C"/>
<stop offset="0.140625" stop-color="#77C32C"/>
<stop offset="0.15625" stop-color="#77C22C"/>
<stop offset="0.164062" stop-color="#76C12C"/>
<stop offset="0.171875" stop-color="#76C12C"/>
<stop offset="0.179688" stop-color="#75C02C"/>
<stop offset="0.1875" stop-color="#75BF2C"/>
<stop offset="0.203125" stop-color="#74BF2C"/>
<stop offset="0.210938" stop-color="#73BE2C"/>
<stop offset="0.21875" stop-color="#73BD2D"/>
<stop offset="0.226562" stop-color="#72BD2D"/>
<stop offset="0.234375" stop-color="#72BC2D"/>
<stop offset="0.242188" stop-color="#71BB2D"/>
<stop offset="0.25" stop-color="#70BB2E"/>
<stop offset="0.257812" stop-color="#70BA2E"/>
<stop offset="0.265625" stop-color="#6FBA2E"/>
<stop offset="0.273438" stop-color="#6FB92E"/>
<stop offset="0.28125" stop-color="#6FB82E"/>
<stop offset="0.289062" stop-color="#6EB82E"/>
<stop offset="0.296875" stop-color="#6EB72E"/>
<stop offset="0.3125" stop-color="#6DB62F"/>
<stop offset="0.320312" stop-color="#6CB52F"/>
<stop offset="0.328125" stop-color="#6CB52F"/>
<stop offset="0.335938" stop-color="#6BB42F"/>
<stop offset="0.34375" stop-color="#6BB32F"/>
<stop offset="0.359375" stop-color="#6AB32F"/>
<stop offset="0.375" stop-color="#6AB230"/>
<stop offset="0.382812" stop-color="#6AB130"/>
<stop offset="0.390625" stop-color="#69B130"/>
<stop offset="0.398438" stop-color="#69B030"/>
<stop offset="0.40625" stop-color="#68AF30"/>
<stop offset="0.421875" stop-color="#68AE30"/>
<stop offset="0.4375" stop-color="#67AD30"/>
<stop offset="0.453125" stop-color="#66AC30"/>
<stop offset="0.460938" stop-color="#65AC31"/>
<stop offset="0.46875" stop-color="#65AB31"/>
<stop offset="0.476562" stop-color="#65AB31"/>
<stop offset="0.484375" stop-color="#65AA31"/>
<stop offset="0.5" stop-color="#64A931"/>
<stop offset="0.515625" stop-color="#63A831"/>
<stop offset="0.53125" stop-color="#62A731"/>
<stop offset="0.546875" stop-color="#62A631"/>
<stop offset="0.5625" stop-color="#61A531"/>
<stop offset="0.578125" stop-color="#60A431"/>
<stop offset="0.59375" stop-color="#5FA331"/>
<stop offset="0.609375" stop-color="#5FA231"/>
<stop offset="0.625" stop-color="#5EA132"/>
<stop offset="0.640625" stop-color="#5DA032"/>
<stop offset="0.65625" stop-color="#5C9F32"/>
<stop offset="0.671875" stop-color="#5B9D32"/>
<stop offset="0.679688" stop-color="#5B9D32"/>
<stop offset="0.6875" stop-color="#5A9C32"/>
<stop offset="0.695312" stop-color="#5A9B32"/>
<stop offset="0.703125" stop-color="#5A9B32"/>
<stop offset="0.71875" stop-color="#599A32"/>
<stop offset="0.734375" stop-color="#589932"/>
<stop offset="0.75" stop-color="#579832"/>
<stop offset="0.757812" stop-color="#579732"/>
<stop offset="0.765625" stop-color="#569632"/>
<stop offset="0.78125" stop-color="#569532"/>
<stop offset="0.796875" stop-color="#559432"/>
<stop offset="0.804688" stop-color="#559332"/>
<stop offset="0.8125" stop-color="#549332"/>
<stop offset="0.820312" stop-color="#549232"/>
<stop offset="0.828125" stop-color="#539231"/>
<stop offset="0.84375" stop-color="#539131"/>
<stop offset="0.859375" stop-color="#528F31"/>
<stop offset="0.875" stop-color="#518E31"/>
<stop offset="0.890625" stop-color="#518D31"/>
<stop offset="0.90625" stop-color="#508C31"/>
<stop offset="0.921875" stop-color="#4F8B31"/>
<stop offset="0.9375" stop-color="#4E8A32"/>
<stop offset="0.945312" stop-color="#4E8932"/>
<stop offset="0.953125" stop-color="#4E8832"/>
<stop offset="0.960938" stop-color="#4D8832"/>
<stop offset="0.96875" stop-color="#4D8732"/>
<stop offset="0.984375" stop-color="#4C8632"/>
<stop offset="1" stop-color="#4B8532"/>
</linearGradient>
</defs>
</svg>
